<svg xmlns="http://www.w3.org/2000/svg" width="28" height="22" viewBox="0 0 28 22" fill="none">
<path d="M8.52212 2.44444C6.40681 2.44444 4.67049 4.13976 4.67049 6.20513V6.95727H0.866617L0.818857 7.66277L0.0485307 21.2012L0 22H17.0435L16.9957 21.2005L16.2254 7.66202L16.1769 6.95727H12.3738V6.20513C12.3738 4.13976 10.6374 2.44444 8.52212 2.44444ZM8.52212 3.94872C9.13503 3.94872 9.72284 4.18645 10.1562 4.60961C10.5896 5.03276 10.8331 5.60669 10.8331 6.20513V6.95727H6.21114V6.20513C6.21114 5.60669 6.45462 5.03276 6.88801 4.60961C7.32141 4.18645 7.90921 3.94872 8.52212 3.94872ZM2.31098 8.46154H4.67049V10.7179H6.21114V8.46154H10.8331V10.7179H12.3738V8.46154H14.7333L15.4073 20.4957H1.63771L2.31098 8.46154Z" fill="black"/>
<path d="M28 7.33333C28 11.3834 24.7297 14.6667 20.6957 14.6667C16.6616 14.6667 13.3913 11.3834 13.3913 7.33333C13.3913 3.28325 16.6616 0 20.6957 0C24.7297 0 28 3.28325 28 7.33333Z" fill="black"/>
<path d="M20.7943 11.1492C20.2395 11.1492 19.762 11.0318 19.3618 10.7971C18.9615 10.5584 18.6346 10.2381 18.3809 9.83626C18.1273 9.43045 17.9391 8.97888 17.8162 8.48155C17.6973 7.98025 17.6379 7.46701 17.6379 6.94184C17.6379 6.39677 17.6993 5.87359 17.8222 5.37229C17.949 4.86701 18.1432 4.41743 18.4047 4.02355C18.6702 3.62569 19.0091 3.31138 19.4212 3.08062C19.8333 2.84986 20.3267 2.73448 20.9013 2.73448C21.4442 2.74642 21.9099 2.87174 22.2982 3.11046C22.6906 3.3452 23.0115 3.65951 23.2612 4.05339C23.5109 4.44727 23.6951 4.88889 23.814 5.37826C23.9329 5.86762 23.9924 6.3729 23.9924 6.8941C23.9924 7.44314 23.9309 7.97229 23.8081 8.48155C23.6852 8.98683 23.495 9.44039 23.2374 9.84223C22.9798 10.2441 22.6489 10.5624 22.2447 10.7971C21.8405 11.0318 21.3571 11.1492 20.7943 11.1492ZM20.8181 9.95562C21.2897 9.95562 21.6701 9.81239 21.9594 9.52593C22.2527 9.2355 22.4667 8.85554 22.6014 8.38607C22.7361 7.91262 22.8035 7.39938 22.8035 6.84635C22.8035 6.32914 22.7341 5.84972 22.5954 5.40809C22.4607 4.96249 22.2487 4.60442 21.9594 4.33388C21.6701 4.06333 21.2956 3.92806 20.8359 3.92806C20.3683 3.92806 19.9859 4.06731 19.6887 4.34581C19.3915 4.62033 19.1735 4.98438 19.0348 5.43793C18.8961 5.89149 18.8268 6.38882 18.8268 6.9299C18.8268 7.47099 18.8941 7.97229 19.0289 8.43381C19.1676 8.89135 19.3835 9.25937 19.6768 9.53787C19.9701 9.81637 20.3505 9.95562 20.8181 9.95562Z" fill="white"/>
</svg>