<svg xmlns="http://www.w3.org/2000/svg" width="23" height="23" viewBox="0 0 23 23" fill="none">
<g clip-path="url(#clip0_633_700)">
<path d="M1.4374 10.35L10.3499 1.43754C10.6915 1.11565 11.1456 0.940221 11.6149 0.948786H20.2399C20.4771 0.946888 20.7123 0.991965 20.9319 1.08142C21.1516 1.17087 21.3514 1.30292 21.5198 1.46997C21.6882 1.63701 21.8218 1.83574 21.913 2.05469C22.0042 2.27364 22.0512 2.50848 22.0511 2.74566V11.3707C22.0635 11.8449 21.8878 12.3048 21.5624 12.65L12.6499 21.5625C12.4835 21.7278 12.286 21.8585 12.069 21.9473C11.8519 22.0361 11.6194 22.0812 11.3849 22.08C11.1412 22.0857 10.8987 22.0429 10.6717 21.954C10.4447 21.8652 10.2376 21.7321 10.0624 21.5625L1.4374 12.9375C1.26702 12.7679 1.13183 12.5663 1.03958 12.3443C0.947329 12.1223 0.899841 11.8842 0.899841 11.6438C0.899841 11.4034 0.947329 11.1653 1.03958 10.9433C1.13183 10.7213 1.26702 10.5197 1.4374 10.35ZM11.3561 20.2544L20.2543 11.385V2.76004H11.6293L2.7599 11.6294L11.3561 20.2544Z" fill="black"/>
<path d="M15.8843 9.27185C14.7648 9.27185 13.8574 8.30646 13.8574 7.1156C13.8574 5.92474 14.7648 4.95935 15.8843 4.95935C17.0037 4.95935 17.9111 5.92474 17.9111 7.1156C17.9111 8.30646 17.0037 9.27185 15.8843 9.27185Z" stroke="black"/>
</g>
<defs>
<clipPath id="clip0_633_700">
<rect width="23" height="23" fill="white" transform="matrix(-1 0 0 1 23 0)"/>
</clipPath>
</defs>
</svg>